<svg width="32" height="32" viewBox="0 0 32 32" fill="none" xmlns="http://www.w3.org/2000/svg">
<path d="M16 5.84127V16H23.619M31.2381 16C31.2381 18.0011 30.844 19.9826 30.0782 21.8314C29.3124 23.6801 28.1899 25.36 26.775 26.775C25.36 28.1899 23.6801 29.3124 21.8314 30.0782C19.9826 30.844 18.0011 31.2381 16 31.2381C13.9989 31.2381 12.0174 30.844 10.1686 30.0782C8.31986 29.3124 6.64003 28.1899 5.22504 26.775C3.81005 25.36 2.68762 23.6801 1.92184 21.8314C1.15605 19.9826 0.761905 18.0011 0.761905 16C0.761905 11.9586 2.36734 8.08274 5.22504 5.22504C8.08274 2.36734 11.9586 0.761905 16 0.761905C20.0414 0.761905 23.9173 2.36734 26.775 5.22504C29.6327 8.08274 31.2381 11.9586 31.2381 16Z" stroke="#F000B8" stroke-width="1.5" stroke-linecap="round" stroke-linejoin="round"/>
</svg>
