<svg width="32" height="32" viewBox="0 0 32 32" fill="none" xmlns="http://www.w3.org/2000/svg">
<path d="M29.9682 19.6402V26.836C29.9682 28.6883 28.6357 30.2832 26.7987 30.527C23.2651 30.996 19.6605 31.2381 16 31.2381C12.3395 31.2381 8.73486 30.996 5.20134 30.527C3.36431 30.2832 2.03183 28.6883 2.03183 26.836V19.6402M29.9682 19.6402C30.3702 19.2908 30.6919 18.8586 30.9111 18.3731C31.1303 17.8877 31.2418 17.3606 31.238 16.8279V10.4229C31.238 8.59259 29.9377 7.01122 28.1278 6.74032C26.21 6.4532 24.2825 6.23464 22.3492 6.08508M29.9682 19.6402C29.6397 19.9196 29.2571 20.1397 28.8287 20.2836C24.6911 21.6565 20.3594 22.3539 16 22.3492C11.5166 22.3492 7.20429 21.6229 3.1713 20.2836C2.75354 20.1446 2.3666 19.9262 2.03183 19.6402M2.03183 19.6402C1.62979 19.2908 1.30813 18.8586 1.08894 18.3731C0.869743 17.8877 0.75821 17.3606 0.761998 16.8279V10.4229C0.761998 8.59259 2.06231 7.01122 3.87224 6.74032C5.79003 6.45319 7.71745 6.23464 9.65083 6.08508M22.3492 6.08508V4.57143C22.3492 3.56108 21.9478 2.59211 21.2334 1.87769C20.519 1.16326 19.55 0.761905 18.5397 0.761905H13.4603C12.45 0.761905 11.481 1.16326 10.7666 1.87769C10.0522 2.59211 9.65083 3.56108 9.65083 4.57143V6.08508M22.3492 6.08508C18.1227 5.75844 13.8773 5.75844 9.65083 6.08508M16 17.2698H16.0135V17.2834H16V17.2698Z" stroke="#F000B8" stroke-width="1.5" stroke-linecap="round" stroke-linejoin="round"/>
</svg>
