<svg width="32" height="32" viewBox="0 0 32 32" fill="none" xmlns="http://www.w3.org/2000/svg">
<path d="M7.11111 0.761905V4.57143M24.8889 0.761905V4.57143M0.761905 27.4286V8.38095C0.761905 7.3706 1.16326 6.40164 1.87769 5.68721C2.59211 4.97279 3.56108 4.57143 4.57143 4.57143H27.4286C28.4389 4.57143 29.4079 4.97279 30.1223 5.68721C30.8367 6.40164 31.2381 7.3706 31.2381 8.38095V27.4286M0.761905 27.4286C0.761905 28.4389 1.16326 29.4079 1.87769 30.1223C2.59211 30.8367 3.56108 31.2381 4.57143 31.2381H27.4286C28.4389 31.2381 29.4079 30.8367 30.1223 30.1223C30.8367 29.4079 31.2381 28.4389 31.2381 27.4286M0.761905 27.4286V14.7302C0.761905 13.7198 1.16326 12.7508 1.87769 12.0364C2.59211 11.322 3.56108 10.9206 4.57143 10.9206H27.4286C28.4389 10.9206 29.4079 11.322 30.1223 12.0364C30.8367 12.7508 31.2381 13.7198 31.2381 14.7302V27.4286M16 17.2698H16.0135V17.2834H16V17.2698ZM16 21.0794H16.0135V21.0929H16V21.0794ZM16 24.8889H16.0135V24.9024H16V24.8889ZM12.1905 21.0794H12.204V21.0929H12.1905V21.0794ZM12.1905 24.8889H12.204V24.9024H12.1905V24.8889ZM8.38095 21.0794H8.3945V21.0929H8.38095V21.0794ZM8.38095 24.8889H8.3945V24.9024H8.38095V24.8889ZM19.8095 17.2698H19.8231V17.2834H19.8095V17.2698ZM19.8095 21.0794H19.8231V21.0929H19.8095V21.0794ZM19.8095 24.8889H19.8231V24.9024H19.8095V24.8889ZM23.619 17.2698H23.6326V17.2834H23.619V17.2698ZM23.619 21.0794H23.6326V21.0929H23.619V21.0794Z" stroke="#F000B8" stroke-width="1.5" stroke-linecap="round" stroke-linejoin="round"/>
</svg>
