<svg width="1540" height="72" viewBox="0 0 1540 72" fill="none" xmlns="http://www.w3.org/2000/svg">
<g filter="url(#filter0_d_25_1996)">
<rect width="1524" height="56" transform="translate(7.80208 5.80156) scale(1.00026)" fill="white"/>
<path d="M62.1946 33.8088C62.1946 23.6561 53.9642 15.4257 43.8114 15.4257C33.6587 15.4257 25.4283 23.6561 25.4283 33.8088C25.4283 43.9616 33.6587 52.192 43.8114 52.192V53.814C32.7629 53.814 23.8062 44.8574 23.8062 33.8088C23.8062 22.7603 32.7629 13.8036 43.8114 13.8036C54.86 13.8036 63.8166 22.7603 63.8166 33.8088C63.8166 44.8574 54.86 53.814 43.8114 53.814V52.192C53.9642 52.192 62.1946 43.9616 62.1946 33.8088Z" fill="#374151"/>
<path d="M49.3194 42.4183V25.2263H52.8554L54.4379 33.4609V25.2263H57.759V42.4183H54.3988L52.6796 33.8223V42.4183H49.3194Z" fill="#374151"/>
<path d="M39.2777 42.4183V41.5978C39.2777 40.7447 39.4079 39.9795 39.6684 39.3022C39.9354 38.6185 40.2773 37.9868 40.6941 37.4072C41.1108 36.8211 41.5504 36.2481 42.0128 35.688C42.4621 35.141 42.8886 34.581 43.2924 34.0079C43.7027 33.4283 44.0348 32.8032 44.2888 32.1324C44.5492 31.4551 44.6795 30.6965 44.6795 29.8564C44.6795 29.4527 44.6176 29.1075 44.4939 28.821C44.3767 28.528 44.1292 28.3814 43.7515 28.3814C43.1784 28.3814 42.8919 28.8926 42.8919 29.915V32.0152H39.2777C39.2712 31.8654 39.2614 31.6961 39.2484 31.5072C39.2419 31.3184 39.2386 31.1361 39.2386 30.9602C39.2386 29.7229 39.3689 28.6745 39.6293 27.8149C39.8898 26.9488 40.3489 26.291 41.0066 25.8417C41.6709 25.3859 42.6021 25.1579 43.8003 25.1579C45.2265 25.1579 46.3336 25.5584 47.1215 26.3594C47.916 27.1604 48.3132 28.3033 48.3132 29.788C48.3132 30.7974 48.183 31.6831 47.9225 32.445C47.662 33.2004 47.3169 33.8907 46.8871 34.5158C46.4573 35.1345 45.9852 35.7531 45.4707 36.3718C45.106 36.8081 44.7511 37.2542 44.406 37.71C44.0673 38.1659 43.7678 38.6543 43.5073 39.1753H48.196V42.4183H39.2777Z" fill="#374151"/>
<path d="M33.9345 42.5746C32.5018 42.5746 31.4469 42.1741 30.7696 41.3731C30.0924 40.5656 29.7537 39.3804 29.7537 37.8175V25.2263H33.0944V37.6807C33.0944 37.9673 33.1107 38.244 33.1433 38.511C33.1758 38.7715 33.2507 38.9864 33.3679 39.1557C33.4852 39.325 33.674 39.4097 33.9345 39.4097C34.2015 39.4097 34.3936 39.3283 34.5108 39.1655C34.628 38.9962 34.6997 38.778 34.7257 38.511C34.7583 38.244 34.7746 37.9673 34.7746 37.6807V25.2263H38.1153V37.8175C38.1153 39.3804 37.7766 40.5656 37.0994 41.3731C36.4221 42.1741 35.3672 42.5746 33.9345 42.5746Z" fill="#374151"/>
</g>
<defs>
<filter id="filter0_d_25_1996" x="4.865e-05" y="4.865e-05" width="1540" height="71.6186" filterUnits="userSpaceOnUse" color-interpolation-filters="sRGB">
<feFlood flood-opacity="0" result="BackgroundImageFix"/>
<feColorMatrix in="SourceAlpha" type="matrix" values="0 0 0 0 0 0 0 0 0 0 0 0 0 0 0 0 0 0 127 0" result="hardAlpha"/>
<feMorphology radius="2" operator="dilate" in="SourceAlpha" result="effect1_dropShadow_25_1996"/>
<feOffset dy="2"/>
<feGaussianBlur stdDeviation="2.9"/>
<feComposite in2="hardAlpha" operator="out"/>
<feColorMatrix type="matrix" values="0 0 0 0 0 0 0 0 0 0 0 0 0 0 0 0 0 0 0.03 0"/>
<feBlend mode="normal" in2="BackgroundImageFix" result="effect1_dropShadow_25_1996"/>
<feBlend mode="normal" in="SourceGraphic" in2="effect1_dropShadow_25_1996" result="shape"/>
</filter>
</defs>
</svg>
