<svg width="212" height="40" viewBox="0 0 212 40" fill="none" xmlns="http://www.w3.org/2000/svg">
<g clip-path="url(#clip0_222_1025)">
<path d="M0 20C0 31.0457 8.95433 40 20 40C31.0457 40 40 31.0457 40 20C40 8.95433 31.0457 0 20 0C8.95433 0 0 8.95433 0 20Z" fill="url(#paint0_linear_222_1025)"/>
<path d="M25.5078 28.6074V11.4199H29.043L30.625 19.6523V11.4199H33.9453V28.6074H30.5859L28.8672 20.0137V28.6074H25.5078Z" fill="white"/>
<path d="M15.4687 28.6074V27.7871C15.4687 26.9343 15.599 26.1693 15.8594 25.4922C16.1263 24.8086 16.4681 24.1771 16.8848 23.5977C17.3014 23.0118 17.7408 22.4388 18.2031 21.8789C18.6523 21.332 19.0788 20.7722 19.4824 20.1992C19.8926 19.6198 20.2246 18.9948 20.4785 18.3242C20.7389 17.6472 20.8691 16.8887 20.8691 16.0488C20.8691 15.6452 20.8073 15.3002 20.6836 15.0137C20.5664 14.7207 20.319 14.5742 19.9414 14.5742C19.3685 14.5742 19.082 15.0853 19.082 16.1074V18.207H15.4687C15.4622 18.0573 15.4524 17.888 15.4394 17.6992C15.4329 17.5104 15.4297 17.3282 15.4297 17.1524C15.4297 15.9154 15.5599 14.8672 15.8203 14.0078C16.0807 13.142 16.5397 12.4844 17.1972 12.0352C17.8613 11.5794 18.7923 11.3516 19.9902 11.3516C21.416 11.3516 22.5228 11.752 23.3105 12.5528C24.1048 13.3536 24.5019 14.4961 24.5019 15.9805C24.5019 16.9896 24.3717 17.875 24.1113 18.6368C23.8509 19.392 23.5058 20.082 23.0762 20.707C22.6464 21.3256 22.1744 21.944 21.6602 22.5625C21.2956 22.9987 20.9408 23.4447 20.5957 23.9004C20.2572 24.3562 19.9576 24.8444 19.6972 25.3652H24.3848V28.6074H15.4687Z" fill="white"/>
<path d="M10.125 28.7637C8.6927 28.7637 7.63803 28.3633 6.96097 27.5625C6.28385 26.7552 5.94531 25.5703 5.94531 24.0078V11.4199H9.28517V23.8711C9.28517 24.1575 9.30143 24.4343 9.33397 24.7011C9.36657 24.9616 9.44143 25.1764 9.55857 25.3457C9.67577 25.5149 9.86457 25.5996 10.125 25.5996C10.3919 25.5996 10.584 25.5182 10.7012 25.3555C10.8184 25.1862 10.89 24.9681 10.916 24.7011C10.9486 24.4343 10.9648 24.1575 10.9648 23.8711V11.4199H14.3047V24.0078C14.3047 25.5703 13.9662 26.7552 13.289 27.5625C12.612 28.3633 11.5573 28.7637 10.125 28.7637Z" fill="white"/>
</g>
<path d="M201.151 25.57V14.65H203.951V16.81L203.791 16.33C204.045 15.6767 204.451 15.1967 205.011 14.89C205.585 14.57 206.251 14.41 207.011 14.41C207.838 14.41 208.558 14.5833 209.171 14.93C209.798 15.2767 210.285 15.7633 210.631 16.39C210.978 17.0033 211.151 17.7233 211.151 18.55V25.57H208.151V19.19C208.151 18.7633 208.065 18.3967 207.891 18.09C207.731 17.7833 207.498 17.5433 207.191 17.37C206.898 17.1967 206.551 17.11 206.151 17.11C205.765 17.11 205.418 17.1967 205.111 17.37C204.805 17.5433 204.565 17.7833 204.391 18.09C204.231 18.3967 204.151 18.7633 204.151 19.19V25.57H201.151Z" fill="url(#paint1_linear_222_1025)"/>
<path d="M194.344 25.81C193.264 25.81 192.277 25.5633 191.384 25.07C190.504 24.5767 189.797 23.9033 189.264 23.05C188.744 22.1833 188.484 21.2033 188.484 20.11C188.484 19.0033 188.744 18.0233 189.264 17.17C189.797 16.3167 190.504 15.6433 191.384 15.15C192.277 14.6567 193.264 14.41 194.344 14.41C195.424 14.41 196.404 14.6567 197.284 15.15C198.164 15.6433 198.864 16.3167 199.384 17.17C199.917 18.0233 200.184 19.0033 200.184 20.11C200.184 21.2033 199.917 22.1833 199.384 23.05C198.864 23.9033 198.164 24.5767 197.284 25.07C196.404 25.5633 195.424 25.81 194.344 25.81ZM194.344 23.11C194.891 23.11 195.364 22.9833 195.764 22.73C196.177 22.4767 196.497 22.1233 196.724 21.67C196.964 21.2167 197.084 20.6967 197.084 20.11C197.084 19.5233 196.964 19.01 196.724 18.57C196.497 18.1167 196.177 17.7633 195.764 17.51C195.364 17.2433 194.891 17.11 194.344 17.11C193.797 17.11 193.317 17.2433 192.904 17.51C192.491 17.7633 192.164 18.1167 191.924 18.57C191.697 19.01 191.584 19.5233 191.584 20.11C191.584 20.6967 191.697 21.2167 191.924 21.67C192.164 22.1233 192.491 22.4767 192.904 22.73C193.317 22.9833 193.797 23.11 194.344 23.11Z" fill="url(#paint2_linear_222_1025)"/>
<path d="M184.529 25.57V14.65H187.529V25.57H184.529ZM184.529 13.67V10.67H187.529V13.67H184.529Z" fill="url(#paint3_linear_222_1025)"/>
<path d="M182.171 25.69C180.851 25.69 179.824 25.3367 179.091 24.63C178.371 23.91 178.011 22.91 178.011 21.63V17.25H176.171V14.65H176.271C176.831 14.65 177.257 14.51 177.551 14.23C177.857 13.95 178.011 13.53 178.011 12.97V12.17H181.011V14.65H183.571V17.25H181.011V21.43C181.011 21.8033 181.077 22.1167 181.211 22.37C181.344 22.61 181.551 22.79 181.831 22.91C182.111 23.03 182.457 23.09 182.871 23.09C182.964 23.09 183.071 23.0833 183.191 23.07C183.311 23.0567 183.437 23.0433 183.571 23.03V25.57C183.371 25.5967 183.144 25.6233 182.891 25.65C182.637 25.6767 182.397 25.69 182.171 25.69Z" fill="url(#paint4_linear_222_1025)"/>
<path d="M170.299 25.81C169.219 25.81 168.232 25.5633 167.339 25.07C166.459 24.5767 165.752 23.9033 165.219 23.05C164.699 22.1833 164.439 21.2033 164.439 20.11C164.439 19.0033 164.699 18.0233 165.219 17.17C165.752 16.3167 166.459 15.6433 167.339 15.15C168.232 14.6567 169.219 14.41 170.299 14.41C171.379 14.41 172.359 14.6567 173.239 15.15C174.119 15.6433 174.819 16.3167 175.339 17.17C175.872 18.0233 176.139 19.0033 176.139 20.11C176.139 21.2033 175.872 22.1833 175.339 23.05C174.819 23.9033 174.119 24.5767 173.239 25.07C172.359 25.5633 171.379 25.81 170.299 25.81ZM170.299 23.11C170.845 23.11 171.319 22.9833 171.719 22.73C172.132 22.4767 172.452 22.1233 172.679 21.67C172.919 21.2167 173.039 20.6967 173.039 20.11C173.039 19.5233 172.919 19.01 172.679 18.57C172.452 18.1167 172.132 17.7633 171.719 17.51C171.319 17.2433 170.845 17.11 170.299 17.11C169.752 17.11 169.272 17.2433 168.859 17.51C168.445 17.7633 168.119 18.1167 167.879 18.57C167.652 19.01 167.539 19.5233 167.539 20.11C167.539 20.6967 167.652 21.2167 167.879 21.67C168.119 22.1233 168.445 22.4767 168.859 22.73C169.272 22.9833 169.752 23.11 170.299 23.11Z" fill="url(#paint5_linear_222_1025)"/>
<path d="M151.055 25.57V10.67H153.435L161.435 21.21L160.155 21.51V10.67H163.255V25.57H160.855L152.995 14.95L154.155 14.65V25.57H151.055Z" fill="url(#paint6_linear_222_1025)"/>
<path d="M141.234 25.81C140.154 25.81 139.167 25.5633 138.274 25.07C137.394 24.5767 136.687 23.9033 136.154 23.05C135.634 22.1833 135.374 21.2033 135.374 20.11C135.374 19.0033 135.634 18.0233 136.154 17.17C136.687 16.3167 137.394 15.6433 138.274 15.15C139.167 14.6567 140.154 14.41 141.234 14.41C142.314 14.41 143.294 14.6567 144.174 15.15C145.054 15.6433 145.754 16.3167 146.274 17.17C146.807 18.0233 147.074 19.0033 147.074 20.11C147.074 21.2033 146.807 22.1833 146.274 23.05C145.754 23.9033 145.054 24.5767 144.174 25.07C143.294 25.5633 142.314 25.81 141.234 25.81ZM141.234 23.11C141.781 23.11 142.254 22.9833 142.654 22.73C143.067 22.4767 143.387 22.1233 143.614 21.67C143.854 21.2167 143.974 20.6967 143.974 20.11C143.974 19.5233 143.854 19.01 143.614 18.57C143.387 18.1167 143.067 17.7633 142.654 17.51C142.254 17.2433 141.781 17.11 141.234 17.11C140.687 17.11 140.207 17.2433 139.794 17.51C139.381 17.7633 139.054 18.1167 138.814 18.57C138.587 19.01 138.474 19.5233 138.474 20.11C138.474 20.6967 138.587 21.2167 138.814 21.67C139.054 22.1233 139.381 22.4767 139.794 22.73C140.207 22.9833 140.687 23.11 141.234 23.11Z" fill="url(#paint7_linear_222_1025)"/>
<path d="M133.456 25.69C132.136 25.69 131.109 25.3367 130.376 24.63C129.656 23.91 129.296 22.91 129.296 21.63V17.25H127.456V14.65H127.556C128.116 14.65 128.543 14.51 128.836 14.23C129.143 13.95 129.296 13.53 129.296 12.97V12.17H132.296V14.65H134.856V17.25H132.296V21.43C132.296 21.8033 132.363 22.1167 132.496 22.37C132.629 22.61 132.836 22.79 133.116 22.91C133.396 23.03 133.743 23.09 134.156 23.09C134.249 23.09 134.356 23.0833 134.476 23.07C134.596 23.0567 134.723 23.0433 134.856 23.03V25.57C134.656 25.5967 134.429 25.6233 134.176 25.65C133.923 25.6767 133.683 25.69 133.456 25.69Z" fill="url(#paint8_linear_222_1025)"/>
<path d="M114.483 25.57V10.43H117.483V20.13L116.363 19.77L121.183 14.65H124.883L120.923 19.05L124.863 25.57H121.463L118.163 20.03L119.903 19.59L116.563 23.23L117.483 21.49V25.57H114.483Z" fill="url(#paint9_linear_222_1025)"/>
<path d="M107.569 25.57V14.65H110.369V17.27L110.169 16.89C110.409 15.97 110.802 15.35 111.349 15.03C111.909 14.6967 112.569 14.53 113.329 14.53H113.969V17.13H113.029C112.295 17.13 111.702 17.3567 111.249 17.81C110.795 18.25 110.569 18.8767 110.569 19.69V25.57H107.569Z" fill="url(#paint10_linear_222_1025)"/>
<path d="M100.761 25.81C99.6812 25.81 98.6946 25.5633 97.8012 25.07C96.9212 24.5767 96.2146 23.9033 95.6812 23.05C95.1612 22.1833 94.9012 21.2033 94.9012 20.11C94.9012 19.0033 95.1612 18.0233 95.6812 17.17C96.2146 16.3167 96.9212 15.6433 97.8012 15.15C98.6946 14.6567 99.6812 14.41 100.761 14.41C101.841 14.41 102.821 14.6567 103.701 15.15C104.581 15.6433 105.281 16.3167 105.801 17.17C106.335 18.0233 106.601 19.0033 106.601 20.11C106.601 21.2033 106.335 22.1833 105.801 23.05C105.281 23.9033 104.581 24.5767 103.701 25.07C102.821 25.5633 101.841 25.81 100.761 25.81ZM100.761 23.11C101.308 23.11 101.781 22.9833 102.181 22.73C102.595 22.4767 102.915 22.1233 103.141 21.67C103.381 21.2167 103.501 20.6967 103.501 20.11C103.501 19.5233 103.381 19.01 103.141 18.57C102.915 18.1167 102.595 17.7633 102.181 17.51C101.781 17.2433 101.308 17.11 100.761 17.11C100.215 17.11 99.7346 17.2433 99.3212 17.51C98.9079 17.7633 98.5812 18.1167 98.3412 18.57C98.1146 19.01 98.0012 19.5233 98.0012 20.11C98.0012 20.6967 98.1146 21.2167 98.3412 21.67C98.5812 22.1233 98.9079 22.4767 99.3212 22.73C99.7346 22.9833 100.215 23.11 100.761 23.11Z" fill="url(#paint11_linear_222_1025)"/>
<path d="M80.9744 25.57L77.2144 14.65H80.3144L82.9544 22.53L81.8744 22.51L84.8144 14.65H87.4144L90.3344 22.51L89.2544 22.53L91.8944 14.65H95.0144L91.2344 25.57H88.6344L85.5944 17.13H86.6344L83.5744 25.57H80.9744Z" fill="url(#paint12_linear_222_1025)"/>
<path d="M65.6327 29.57V14.65H68.4327V16.73L68.1727 16.13C68.5327 15.5833 69.0193 15.1633 69.6327 14.87C70.2593 14.5633 70.9727 14.41 71.7727 14.41C72.8127 14.41 73.7527 14.6633 74.5927 15.17C75.4327 15.6767 76.0993 16.3633 76.5927 17.23C77.086 18.0833 77.3327 19.0433 77.3327 20.11C77.3327 21.1633 77.086 22.1233 76.5927 22.99C76.1127 23.8567 75.4527 24.5433 74.6127 25.05C73.7727 25.5567 72.8193 25.81 71.7527 25.81C71.006 25.81 70.3127 25.6767 69.6727 25.41C69.046 25.13 68.5393 24.7233 68.1527 24.19L68.6327 23.57V29.57H65.6327ZM71.3927 23.11C71.9527 23.11 72.446 22.9833 72.8727 22.73C73.2993 22.4767 73.6327 22.1233 73.8727 21.67C74.1127 21.2167 74.2327 20.6967 74.2327 20.11C74.2327 19.5233 74.1127 19.01 73.8727 18.57C73.6327 18.1167 73.2993 17.7633 72.8727 17.51C72.446 17.2433 71.9527 17.11 71.3927 17.11C70.8593 17.11 70.3793 17.2367 69.9527 17.49C69.5393 17.7433 69.2127 18.0967 68.9727 18.55C68.746 19.0033 68.6327 19.5233 68.6327 20.11C68.6327 20.6967 68.746 21.2167 68.9727 21.67C69.2127 22.1233 69.5393 22.4767 69.9527 22.73C70.3793 22.9833 70.8593 23.11 71.3927 23.11Z" fill="url(#paint13_linear_222_1025)"/>
<path d="M58.1 25.81C56.9267 25.81 55.88 25.5633 54.96 25.07C54.04 24.5767 53.3133 23.9033 52.78 23.05C52.26 22.1833 52 21.2033 52 20.11V10.67H55.1V19.91C55.1 20.4967 55.2267 21.03 55.48 21.51C55.7467 21.9767 56.1067 22.3433 56.56 22.61C57.0133 22.8767 57.5267 23.01 58.1 23.01C58.6867 23.01 59.2 22.8767 59.64 22.61C60.0933 22.3433 60.4467 21.9767 60.7 21.51C60.9667 21.03 61.1 20.4967 61.1 19.91V10.67H64.2V20.11C64.2 21.2033 63.9333 22.1833 63.4 23.05C62.88 23.9033 62.16 24.5767 61.24 25.07C60.32 25.5633 59.2733 25.81 58.1 25.81Z" fill="url(#paint14_linear_222_1025)"/>
<defs>
<linearGradient id="paint0_linear_222_1025" x1="6.5" y1="1.5" x2="34.5" y2="56" gradientUnits="userSpaceOnUse">
<stop stop-color="#312E81"/>
<stop offset="1" stop-color="#0A0A1B"/>
</linearGradient>
<linearGradient id="paint1_linear_222_1025" x1="101.648" y1="11.07" x2="296.568" y2="150.597" gradientUnits="userSpaceOnUse">
<stop stop-color="#312E81"/>
<stop offset="1" stop-color="#0A0A1B"/>
</linearGradient>
<linearGradient id="paint2_linear_222_1025" x1="101.649" y1="11.07" x2="296.569" y2="150.598" gradientUnits="userSpaceOnUse">
<stop stop-color="#312E81"/>
<stop offset="1" stop-color="#0A0A1B"/>
</linearGradient>
<linearGradient id="paint3_linear_222_1025" x1="101.648" y1="11.07" x2="296.567" y2="150.598" gradientUnits="userSpaceOnUse">
<stop stop-color="#312E81"/>
<stop offset="1" stop-color="#0A0A1B"/>
</linearGradient>
<linearGradient id="paint4_linear_222_1025" x1="101.648" y1="11.07" x2="296.568" y2="150.598" gradientUnits="userSpaceOnUse">
<stop stop-color="#312E81"/>
<stop offset="1" stop-color="#0A0A1B"/>
</linearGradient>
<linearGradient id="paint5_linear_222_1025" x1="101.648" y1="11.07" x2="296.567" y2="150.598" gradientUnits="userSpaceOnUse">
<stop stop-color="#312E81"/>
<stop offset="1" stop-color="#0A0A1B"/>
</linearGradient>
<linearGradient id="paint6_linear_222_1025" x1="101.649" y1="11.07" x2="296.568" y2="150.598" gradientUnits="userSpaceOnUse">
<stop stop-color="#312E81"/>
<stop offset="1" stop-color="#0A0A1B"/>
</linearGradient>
<linearGradient id="paint7_linear_222_1025" x1="101.648" y1="11.07" x2="296.568" y2="150.598" gradientUnits="userSpaceOnUse">
<stop stop-color="#312E81"/>
<stop offset="1" stop-color="#0A0A1B"/>
</linearGradient>
<linearGradient id="paint8_linear_222_1025" x1="101.648" y1="11.07" x2="296.568" y2="150.598" gradientUnits="userSpaceOnUse">
<stop stop-color="#312E81"/>
<stop offset="1" stop-color="#0A0A1B"/>
</linearGradient>
<linearGradient id="paint9_linear_222_1025" x1="101.648" y1="11.07" x2="296.568" y2="150.597" gradientUnits="userSpaceOnUse">
<stop stop-color="#312E81"/>
<stop offset="1" stop-color="#0A0A1B"/>
</linearGradient>
<linearGradient id="paint10_linear_222_1025" x1="101.649" y1="11.07" x2="296.568" y2="150.598" gradientUnits="userSpaceOnUse">
<stop stop-color="#312E81"/>
<stop offset="1" stop-color="#0A0A1B"/>
</linearGradient>
<linearGradient id="paint11_linear_222_1025" x1="101.648" y1="11.07" x2="296.568" y2="150.597" gradientUnits="userSpaceOnUse">
<stop stop-color="#312E81"/>
<stop offset="1" stop-color="#0A0A1B"/>
</linearGradient>
<linearGradient id="paint12_linear_222_1025" x1="101.647" y1="11.07" x2="296.567" y2="150.598" gradientUnits="userSpaceOnUse">
<stop stop-color="#312E81"/>
<stop offset="1" stop-color="#0A0A1B"/>
</linearGradient>
<linearGradient id="paint13_linear_222_1025" x1="101.649" y1="11.07" x2="296.569" y2="150.598" gradientUnits="userSpaceOnUse">
<stop stop-color="#312E81"/>
<stop offset="1" stop-color="#0A0A1B"/>
</linearGradient>
<linearGradient id="paint14_linear_222_1025" x1="101.649" y1="11.07" x2="296.569" y2="150.598" gradientUnits="userSpaceOnUse">
<stop stop-color="#312E81"/>
<stop offset="1" stop-color="#0A0A1B"/>
</linearGradient>
<clipPath id="clip0_222_1025">
<rect width="40" height="40" fill="white"/>
</clipPath>
</defs>
</svg>
