<svg width="40" height="40" viewBox="0 0 40 40" fill="none" xmlns="http://www.w3.org/2000/svg">
<g clip-path="url(#clip0_148_8472)">
<path d="M0 20C0 31.0457 8.95433 40 20 40C31.0457 40 40 31.0457 40 20C40 8.95433 31.0457 0 20 0C8.95433 0 0 8.95433 0 20Z" fill="url(#paint0_linear_148_8472)"/>
<path d="M25.5078 28.6074V11.4199H29.043L30.625 19.6523V11.4199H33.9453V28.6074H30.5859L28.8672 20.0137V28.6074H25.5078Z" fill="white"/>
<path d="M15.4687 28.6074V27.7871C15.4687 26.9343 15.599 26.1693 15.8594 25.4922C16.1263 24.8086 16.4681 24.1771 16.8848 23.5977C17.3014 23.0118 17.7408 22.4388 18.2031 21.8789C18.6523 21.332 19.0788 20.7722 19.4824 20.1992C19.8926 19.6198 20.2246 18.9948 20.4785 18.3242C20.7389 17.6472 20.8691 16.8887 20.8691 16.0488C20.8691 15.6452 20.8073 15.3002 20.6836 15.0137C20.5664 14.7207 20.319 14.5742 19.9414 14.5742C19.3685 14.5742 19.082 15.0853 19.082 16.1074V18.207H15.4687C15.4622 18.0573 15.4524 17.888 15.4394 17.6992C15.4329 17.5104 15.4297 17.3282 15.4297 17.1524C15.4297 15.9154 15.5599 14.8672 15.8203 14.0078C16.0807 13.142 16.5397 12.4844 17.1972 12.0352C17.8613 11.5794 18.7923 11.3516 19.9902 11.3516C21.416 11.3516 22.5228 11.752 23.3105 12.5528C24.1048 13.3536 24.5019 14.4961 24.5019 15.9805C24.5019 16.9896 24.3717 17.875 24.1113 18.6368C23.8509 19.392 23.5058 20.082 23.0762 20.707C22.6464 21.3256 22.1744 21.944 21.6602 22.5625C21.2956 22.9987 20.9408 23.4447 20.5957 23.9004C20.2572 24.3562 19.9576 24.8444 19.6972 25.3652H24.3848V28.6074H15.4687Z" fill="white"/>
<path d="M10.125 28.7637C8.6927 28.7637 7.63803 28.3633 6.96097 27.5625C6.28385 26.7552 5.94531 25.5703 5.94531 24.0078V11.4199H9.28517V23.8711C9.28517 24.1575 9.30143 24.4343 9.33397 24.7011C9.36657 24.9616 9.44143 25.1764 9.55857 25.3457C9.67577 25.5149 9.86457 25.5996 10.125 25.5996C10.3919 25.5996 10.584 25.5182 10.7012 25.3555C10.8184 25.1862 10.89 24.9681 10.916 24.7011C10.9486 24.4343 10.9648 24.1575 10.9648 23.8711V11.4199H14.3047V24.0078C14.3047 25.5703 13.9662 26.7552 13.289 27.5625C12.612 28.3633 11.5573 28.7637 10.125 28.7637Z" fill="white"/>
</g>
<defs>
<linearGradient id="paint0_linear_148_8472" x1="6.5" y1="1.5" x2="34.5" y2="56" gradientUnits="userSpaceOnUse">
<stop stop-color="#312E81"/>
<stop offset="1" stop-color="#0A0A1B"/>
</linearGradient>
<clipPath id="clip0_148_8472">
<rect width="40" height="40" fill="white"/>
</clipPath>
</defs>
</svg>
