<svg width="1540" height="74" viewBox="0 0 1540 74" fill="none" xmlns="http://www.w3.org/2000/svg">
<g filter="url(#filter0_d_25_1996)">
<rect width="1524" height="58" transform="translate(7.80208 5.80156) scale(1.00026)" fill="white"/>
<path d="M64.114 34.8091C64.114 24.1487 55.4721 15.5068 44.8117 15.5068C34.1513 15.5068 25.5094 24.1487 25.5094 34.8091C25.5094 45.4695 34.1513 54.1114 44.8117 54.1114V55.8146C33.2107 55.8146 23.8062 46.4101 23.8062 34.8091C23.8062 23.2081 33.2107 13.8036 44.8117 13.8036C56.4127 13.8036 65.8172 23.2081 65.8172 34.8091C65.8172 46.4101 56.4127 55.8146 44.8117 55.8146V54.1114C55.4721 54.1114 64.114 45.4695 64.114 34.8091Z" fill="#374151"/>
<path d="M50.595 43.849V25.7974H54.3079L55.9695 34.4437V25.7974H59.4567V43.849H55.9284L54.1233 34.8232V43.849H50.595Z" fill="#374151"/>
<path d="M40.0513 43.849V42.9875C40.0513 42.0917 40.188 41.2883 40.4615 40.5772C40.7419 39.8592 41.1008 39.196 41.5385 38.5874C41.9761 37.972 42.4376 37.3703 42.9231 36.7822C43.3949 36.2079 43.8428 35.6198 44.2667 35.0181C44.6975 34.4096 45.0462 33.7531 45.3129 33.0488C45.5864 32.3377 45.7231 31.5411 45.7231 30.6591C45.7231 30.2351 45.6582 29.8727 45.5283 29.5719C45.4052 29.2642 45.1454 29.1103 44.7488 29.1103C44.147 29.1103 43.8462 29.6471 43.8462 30.7206V32.9258H40.0513C40.0444 32.7685 40.0342 32.5907 40.0205 32.3924C40.0137 32.1941 40.0102 32.0027 40.0102 31.8181C40.0102 30.5189 40.147 29.418 40.4205 28.5154C40.694 27.606 41.1761 26.9154 41.8667 26.4436C42.5641 25.965 43.5419 25.7257 44.8001 25.7257C46.2975 25.7257 47.4599 26.1462 48.2873 26.9872C49.1215 27.8282 49.5386 29.0283 49.5386 30.5873C49.5386 31.6471 49.4018 32.577 49.1283 33.3771C48.8548 34.1702 48.4924 34.895 48.0411 35.5514C47.5898 36.201 47.0941 36.8506 46.5539 37.5002C46.171 37.9583 45.7984 38.4267 45.436 38.9053C45.0804 39.384 44.7659 39.8968 44.4924 40.4438H49.4155V43.849H40.0513Z" fill="#374151"/>
<path d="M34.4409 44.0131C32.9366 44.0131 31.8289 43.5926 31.1178 42.7516C30.4067 41.9037 30.0511 40.6592 30.0511 39.0182V25.7974H33.5588V38.8746C33.5588 39.1754 33.5759 39.466 33.6101 39.7464C33.6443 40.0199 33.723 40.2455 33.846 40.4233C33.9691 40.6011 34.1674 40.69 34.4409 40.69C34.7213 40.69 34.923 40.6045 35.0461 40.4336C35.1691 40.2558 35.2443 40.0267 35.2717 39.7464C35.3059 39.466 35.323 39.1754 35.323 38.8746V25.7974H38.8307V39.0182C38.8307 40.6592 38.4752 41.9037 37.764 42.7516C37.0529 43.5926 35.9452 44.0131 34.4409 44.0131Z" fill="#374151"/>
</g>
<defs>
<filter id="filter0_d_25_1996" x="4.865e-05" y="4.865e-05" width="1540" height="73.6191" filterUnits="userSpaceOnUse" color-interpolation-filters="sRGB">
<feFlood flood-opacity="0" result="BackgroundImageFix"/>
<feColorMatrix in="SourceAlpha" type="matrix" values="0 0 0 0 0 0 0 0 0 0 0 0 0 0 0 0 0 0 127 0" result="hardAlpha"/>
<feMorphology radius="2" operator="dilate" in="SourceAlpha" result="effect1_dropShadow_25_1996"/>
<feOffset dy="2"/>
<feGaussianBlur stdDeviation="2.9"/>
<feComposite in2="hardAlpha" operator="out"/>
<feColorMatrix type="matrix" values="0 0 0 0 0 0 0 0 0 0 0 0 0 0 0 0 0 0 0.03 0"/>
<feBlend mode="normal" in2="BackgroundImageFix" result="effect1_dropShadow_25_1996"/>
<feBlend mode="normal" in="SourceGraphic" in2="effect1_dropShadow_25_1996" result="shape"/>
</filter>
</defs>
</svg>
