<svg width="86" height="26" viewBox="0 0 86 26" fill="none" xmlns="http://www.w3.org/2000/svg">
<g clip-path="url(#clip0_129_8161)">
<path d="M1.57163 1.12167L16.0245 0.059069C17.7998 -0.0925081 18.2559 0.00966989 19.3722 0.817474L23.9858 4.05259C24.7466 4.60898 25 4.76056 25 5.36635V23.1092C25 24.2212 24.5944 24.879 23.1742 24.9793L6.39072 25.9912C5.32503 26.0414 4.81753 25.8898 4.25935 25.1819L0.861952 20.7843C0.252578 19.9749 0 19.3692 0 18.6609V2.88963C0 1.98043 0.40564 1.22229 1.57163 1.12167Z" fill="white"/>
<path fill-rule="evenodd" clip-rule="evenodd" d="M16.0243 0.0593294L1.57161 1.12194C0.405636 1.2223 0 1.98071 0 2.88966V18.6611C0 19.369 0.252575 19.9748 0.861943 20.7845L4.2593 25.1818C4.81748 25.8898 5.32498 26.0416 6.39065 25.9912L23.1742 24.9798C24.5933 24.8792 25 24.2214 25 23.1096V5.36665C25 4.79205 24.772 4.62643 24.1007 4.13608L19.372 0.81748C18.256 0.00966996 17.7996 -0.0925088 16.0243 0.0590694V0.0593294ZM6.77017 5.07623C5.39968 5.16801 5.08886 5.18881 4.3105 4.55884L2.33169 2.99209C2.13057 2.7893 2.23165 2.53632 2.73837 2.48588L16.6321 1.47527C17.7989 1.37387 18.4064 1.77869 18.8627 2.13228L21.2456 3.85086C21.3475 3.90208 21.6008 4.20446 21.296 4.20446L6.94778 5.06427L6.77017 5.07623ZM5.17244 22.958V7.89564C5.17244 7.23784 5.37539 6.93443 5.98293 6.88347L22.4628 5.92304C23.0217 5.87286 23.2743 6.22646 23.2743 6.88321V21.8452C23.2743 22.503 23.1724 23.0594 22.2601 23.1096L6.48991 24.0196C5.57755 24.0698 5.1727 23.7674 5.1727 22.958H5.17244ZM20.7397 8.70319C20.8407 9.15818 20.7397 9.61318 20.2826 9.66517L19.5225 9.81519V20.936C18.8624 21.2896 18.2549 21.4917 17.7471 21.4917C16.9356 21.4917 16.7329 21.2387 16.1251 20.481L11.1546 12.6967V20.2281L12.727 20.5824C12.727 20.5824 12.727 21.4924 11.4584 21.4924L7.96096 21.6945C7.85909 21.4917 7.96096 20.9865 8.3154 20.8859L9.2288 20.6337V10.6758L7.96122 10.5736C7.85935 10.1186 8.11271 9.4616 8.82316 9.41064L12.5757 9.15922L17.7474 17.0441V10.0684L16.4292 9.91763C16.3273 9.36046 16.7329 8.95564 17.2396 8.90624L20.7397 8.70319Z" fill="black"/>
<path d="M80.3516 11.7832V19.2627H77.8203V9.75293H80.1934L80.3516 11.7832ZM79.9824 14.1738H79.2969C79.2969 13.4707 79.3877 12.8379 79.5693 12.2754C79.751 11.707 80.0059 11.2236 80.334 10.8252C80.6621 10.4209 81.0518 10.1133 81.5029 9.90234C81.96 9.68555 82.4697 9.57715 83.0322 9.57715C83.4775 9.57715 83.8848 9.6416 84.2539 9.77051C84.623 9.89941 84.9395 10.1045 85.2031 10.3857C85.4727 10.667 85.6777 11.0391 85.8184 11.502C85.9648 11.9648 86.0381 12.5303 86.0381 13.1982V19.2627H83.4893V13.1895C83.4893 12.7676 83.4307 12.4395 83.3135 12.2051C83.1963 11.9707 83.0234 11.8066 82.7949 11.7129C82.5723 11.6133 82.2969 11.5635 81.9688 11.5635C81.6289 11.5635 81.333 11.6309 81.0811 11.7656C80.835 11.9004 80.6299 12.0879 80.4658 12.3281C80.3076 12.5625 80.1875 12.8379 80.1055 13.1543C80.0234 13.4707 79.9824 13.8105 79.9824 14.1738Z" fill="black"/>
<path d="M67.3086 14.6045V14.4199C67.3086 13.7227 67.4082 13.0811 67.6074 12.4951C67.8066 11.9033 68.0967 11.3906 68.4775 10.957C68.8584 10.5234 69.3271 10.1865 69.8838 9.94629C70.4404 9.7002 71.0791 9.57715 71.7998 9.57715C72.5205 9.57715 73.1621 9.7002 73.7246 9.94629C74.2871 10.1865 74.7588 10.5234 75.1396 10.957C75.5264 11.3906 75.8193 11.9033 76.0186 12.4951C76.2178 13.0811 76.3174 13.7227 76.3174 14.4199V14.6045C76.3174 15.2959 76.2178 15.9375 76.0186 16.5293C75.8193 17.1152 75.5264 17.6279 75.1396 18.0674C74.7588 18.501 74.29 18.8379 73.7334 19.0781C73.1768 19.3184 72.5381 19.4385 71.8174 19.4385C71.0967 19.4385 70.4551 19.3184 69.8926 19.0781C69.3359 18.8379 68.8643 18.501 68.4775 18.0674C68.0967 17.6279 67.8066 17.1152 67.6074 16.5293C67.4082 15.9375 67.3086 15.2959 67.3086 14.6045ZM69.8398 14.4199V14.6045C69.8398 15.0029 69.875 15.375 69.9453 15.7207C70.0156 16.0664 70.127 16.3711 70.2793 16.6348C70.4375 16.8926 70.6426 17.0947 70.8945 17.2412C71.1465 17.3877 71.4541 17.4609 71.8174 17.4609C72.1689 17.4609 72.4707 17.3877 72.7227 17.2412C72.9746 17.0947 73.1768 16.8926 73.3291 16.6348C73.4814 16.3711 73.5928 16.0664 73.6631 15.7207C73.7393 15.375 73.7773 15.0029 73.7773 14.6045V14.4199C73.7773 14.0332 73.7393 13.6699 73.6631 13.3301C73.5928 12.9844 73.4785 12.6797 73.3203 12.416C73.168 12.1465 72.9658 11.9355 72.7139 11.7832C72.4619 11.6309 72.1572 11.5547 71.7998 11.5547C71.4424 11.5547 71.1377 11.6309 70.8857 11.7832C70.6396 11.9355 70.4375 12.1465 70.2793 12.416C70.127 12.6797 70.0156 12.9844 69.9453 13.3301C69.875 13.6699 69.8398 14.0332 69.8398 14.4199Z" fill="black"/>
<path d="M65.6221 9.75293V19.2627H63.082V9.75293H65.6221ZM62.9238 7.27441C62.9238 6.90527 63.0527 6.60059 63.3105 6.36035C63.5684 6.12012 63.9141 6 64.3477 6C64.7754 6 65.1182 6.12012 65.376 6.36035C65.6396 6.60059 65.7715 6.90527 65.7715 7.27441C65.7715 7.64355 65.6396 7.94824 65.376 8.18848C65.1182 8.42871 64.7754 8.54883 64.3477 8.54883C63.9141 8.54883 63.5684 8.42871 63.3105 8.18848C63.0527 7.94824 62.9238 7.64355 62.9238 7.27441Z" fill="black"/>
<path d="M61.5078 9.75293V11.5459H55.9707V9.75293H61.5078ZM57.3418 7.40625H59.873V16.3975C59.873 16.6729 59.9082 16.8838 59.9785 17.0303C60.0547 17.1768 60.166 17.2793 60.3125 17.3379C60.459 17.3906 60.6436 17.417 60.8662 17.417C61.0244 17.417 61.165 17.4111 61.2881 17.3994C61.417 17.3818 61.5254 17.3643 61.6133 17.3467L61.6221 19.21C61.4053 19.2803 61.1709 19.3359 60.9189 19.377C60.667 19.418 60.3887 19.4385 60.084 19.4385C59.5273 19.4385 59.041 19.3477 58.625 19.166C58.2148 18.9785 57.8984 18.6797 57.6758 18.2695C57.4531 17.8594 57.3418 17.3203 57.3418 16.6523V7.40625Z" fill="black"/>
<path d="M46.2852 14.6045V14.4199C46.2852 13.7227 46.3848 13.0811 46.584 12.4951C46.7832 11.9033 47.0732 11.3906 47.4541 10.957C47.835 10.5234 48.3037 10.1865 48.8604 9.94629C49.417 9.7002 50.0557 9.57715 50.7764 9.57715C51.4971 9.57715 52.1387 9.7002 52.7012 9.94629C53.2637 10.1865 53.7354 10.5234 54.1162 10.957C54.5029 11.3906 54.7959 11.9033 54.9951 12.4951C55.1943 13.0811 55.2939 13.7227 55.2939 14.4199V14.6045C55.2939 15.2959 55.1943 15.9375 54.9951 16.5293C54.7959 17.1152 54.5029 17.6279 54.1162 18.0674C53.7354 18.501 53.2666 18.8379 52.71 19.0781C52.1533 19.3184 51.5146 19.4385 50.7939 19.4385C50.0732 19.4385 49.4316 19.3184 48.8691 19.0781C48.3125 18.8379 47.8408 18.501 47.4541 18.0674C47.0732 17.6279 46.7832 17.1152 46.584 16.5293C46.3848 15.9375 46.2852 15.2959 46.2852 14.6045ZM48.8164 14.4199V14.6045C48.8164 15.0029 48.8516 15.375 48.9219 15.7207C48.9922 16.0664 49.1035 16.3711 49.2559 16.6348C49.4141 16.8926 49.6191 17.0947 49.8711 17.2412C50.123 17.3877 50.4307 17.4609 50.7939 17.4609C51.1455 17.4609 51.4473 17.3877 51.6992 17.2412C51.9512 17.0947 52.1533 16.8926 52.3057 16.6348C52.458 16.3711 52.5693 16.0664 52.6396 15.7207C52.7158 15.375 52.7539 15.0029 52.7539 14.6045V14.4199C52.7539 14.0332 52.7158 13.6699 52.6396 13.3301C52.5693 12.9844 52.4551 12.6797 52.2969 12.416C52.1445 12.1465 51.9424 11.9355 51.6904 11.7832C51.4385 11.6309 51.1338 11.5547 50.7764 11.5547C50.4189 11.5547 50.1143 11.6309 49.8623 11.7832C49.6162 11.9355 49.4141 12.1465 49.2559 12.416C49.1035 12.6797 48.9922 12.9844 48.9219 13.3301C48.8516 13.6699 48.8164 14.0332 48.8164 14.4199Z" fill="black"/>
<path d="M44.5537 6.46582V19.2627H41.917L36.7754 10.6846V19.2627H34.1387V6.46582H36.7754L41.9258 15.0527V6.46582H44.5537Z" fill="black"/>
</g>
<defs>
<clipPath id="clip0_129_8161">
<rect width="86" height="26" fill="white"/>
</clipPath>
</defs>
</svg>
