<svg width="86" height="25" viewBox="0 0 86 25" fill="none" xmlns="http://www.w3.org/2000/svg">
<g clip-path="url(#clip0_125_8074)">
<path d="M55.5977 5.54244C51.8456 5.56045 48.789 8.64444 48.8062 12.4843C48.8235 16.3242 51.9106 19.3792 55.6627 19.362C59.4149 19.3448 62.4723 16.26 62.4542 12.4217C62.4362 8.58334 59.3499 5.52599 55.5962 5.544L55.5977 5.54244ZM55.6494 16.5459C54.5857 16.5522 53.5634 16.1347 52.8075 15.3866C52.0516 14.6385 51.6325 13.6194 51.6207 12.5556C51.609 11.4919 52.032 10.4696 52.7801 9.71369C53.5282 8.95777 54.5473 8.53869 55.611 8.52694C56.6748 8.51519 57.6971 8.93819 58.453 9.68627C59.2089 10.4344 59.628 11.4535 59.6397 12.5172C59.6507 14.6518 57.7832 16.535 55.6494 16.5459ZM70.7991 8.79719C68.8368 8.80659 67.3086 10.4344 67.318 12.3966L67.3493 18.9649L64.3632 18.979L64.3029 5.92627L67.289 5.91217L67.2992 7.95902C67.2992 7.95902 68.5682 5.90669 71.1281 5.89494L71.9819 5.89024L71.996 8.79014L70.7991 8.79719ZM41.0121 6.0375L43.2728 14.9847L45.6196 6.01557L48.6057 6.00225L44.9115 19.08L42.0116 19.0933L39.6663 9.97689L37.4056 19.1145L34.5049 19.1278L30.6055 6.09312L33.5054 6.0798L36.106 15.0255L38.1975 6.05787L41.0121 6.0375ZM80.7075 11.8232C82.7481 10.62 84.1894 8.39455 84.1776 5.8354L81.1916 5.8495C81.2025 8.0679 79.4181 9.868 77.2859 9.87584L76.859 9.8774L76.812 -0.44458L73.8259 -0.43048L73.9175 18.9335L76.902 18.9202L76.8738 12.7789L77.2146 12.7773C77.5561 12.7757 77.8984 12.9449 77.9854 13.2003L82.1919 18.8951L85.6895 18.8795L80.7075 11.8232Z" fill="#4B4B4B"/>
<path d="M23.693 5.69285C20.4524 5.70852 17.988 7.8525 17.066 11.2686C15.519 8.88729 14.3118 6.16364 13.6194 3.86377L10.208 3.87944L10.2503 12.9215C10.254 13.7811 9.91625 14.6072 9.31122 15.2179C8.70619 15.8287 7.88341 16.1742 7.02371 16.1786C6.16402 16.1823 5.33801 15.8445 4.72726 15.2395C4.1165 14.6345 3.77097 13.8117 3.76661 12.952L3.72353 3.90999L0.310547 3.92565L0.352847 12.9677C0.370864 16.7198 3.36868 19.6934 7.03781 19.6754C10.7069 19.6573 13.6789 16.658 13.6617 12.905L13.6538 11.3697C14.3416 12.7303 15.2017 14.1764 16.1472 15.4524L14.0612 25.4423L17.558 25.4266L19.062 18.1682C20.4305 19.0158 21.9603 19.5195 23.7588 19.5109C27.5126 19.4928 30.5699 16.4089 30.5503 12.4844C30.5361 10.6762 29.8071 8.94714 28.5225 7.67458C27.2379 6.40202 25.502 5.68932 23.6938 5.69207L23.693 5.69285ZM23.7416 16.0148C22.377 16.0211 21.0101 15.4305 19.897 14.4967L20.2315 13.1314V13.0531C20.4822 11.6008 21.2357 9.12385 23.7957 9.11289C24.6983 9.11139 25.565 9.46645 26.2071 10.1008C26.8492 10.7352 27.2148 11.5974 27.2243 12.5C27.1475 14.4623 25.5347 16.0054 23.7424 16.0141L23.7416 16.0148Z" fill="#6FDA44"/>
</g>
<defs>
<clipPath id="clip0_125_8074">
<rect width="86" height="25" fill="white"/>
</clipPath>
</defs>
</svg>
